<svg xmlns="http://www.w3.org/2000/svg" version="1.1" xmlns:xlink="http://www.w3.org/1999/xlink" xmlns:svgjs="http://svgjs.dev/svgjs" width="1452" height="560" preserveAspectRatio="none" viewBox="0 0 1452 560"><g mask="url(&quot;#SvgjsMask1138&quot;)" fill="none"><rect width="1452" height="560" x="0" y="0" fill="rgba(227, 255, 221, 1)"></rect><path d="M0,465.841C85.657,456.204,122.42,349.76,196.976,306.501C276.981,260.08,401.375,284.308,449.256,205.168C496.301,127.409,444.259,27.037,418.849,-60.221C396.454,-137.125,368.404,-213.617,311.028,-269.507C256.201,-322.914,177.128,-333.637,106.906,-364.087C24.978,-399.613,-46.945,-469.101,-136.06,-463.376C-231.179,-457.265,-318.635,-402.124,-383.795,-332.56C-450.334,-261.524,-489.259,-168.675,-502.435,-72.239C-515.553,23.774,-510.277,127.604,-457.799,209.07C-407.665,286.896,-308.425,308.993,-227.682,354.28C-152.446,396.478,-85.721,475.486,0,465.841" fill="#c4ffb7"></path><path d="M1452 1174.743C1566.984 1169.3049999999998 1677.002 1121.558 1765.865 1048.384 1848.95 979.967 1882.614 874.825 1932.218 779.308 1984.7530000000002 678.146 2062.3940000000002 585.776 2065.285 471.823 2068.404 348.86199999999997 2035.187 217.06599999999997 1948.6979999999999 129.608 1863.604 43.561000000000035 1729.856 42.84699999999998 1612.369 13.831999999999994 1500.337-13.835000000000036 1390.392-57.24599999999998 1276.912-36.29600000000005 1156.683-14.100000000000023 1049.04 49.79199999999997 960.557 134.163 865.885 224.435 776.233 330.688 756.434 459.993 736.57 589.721 787.245 720.037 853.501 833.325 915.563 939.442 1011.679 1018.086 1118.459 1079 1221.008 1137.499 1334.071 1180.3200000000002 1452 1174.743" fill="#ffffff"></path></g><defs><mask id="SvgjsMask1138"><rect width="1452" height="560" fill="#ffffff"></rect></mask></defs></svg>